<?xml version="1.0" encoding="UTF-8"?>
<!DOCTYPE svg PUBLIC "-//W3C//DTD SVG 1.1//EN" "http://www.w3.org/Graphics/SVG/1.1/DTD/svg11.dtd">
<svg xmlns="http://www.w3.org/2000/svg" version="1.1" width="512px" height="512px" style="shape-rendering:geometricPrecision; text-rendering:geometricPrecision; image-rendering:optimizeQuality; fill-rule:evenodd; clip-rule:evenodd" xmlns:xlink="http://www.w3.org/1999/xlink">
<g><path style="opacity:1" fill="#f9f9f9" d="M -0.5,-0.5 C 170.167,-0.5 340.833,-0.5 511.5,-0.5C 511.5,170.167 511.5,340.833 511.5,511.5C 340.833,511.5 170.167,511.5 -0.5,511.5C -0.5,340.833 -0.5,170.167 -0.5,-0.5 Z"/></g>
<g><path style="opacity:1" fill="#4743c2" d="M 223.5,100.5 C 223.5,100.833 223.5,101.167 223.5,101.5C 218.47,101.98 213.47,102.647 208.5,103.5C 213.061,100.982 218.061,99.9819 223.5,100.5 Z"/></g>
<g><path style="opacity:1" fill="#0618f2" d="M 223.5,101.5 C 231.87,101.377 240.203,101.877 248.5,103C 250.624,104.122 252.457,105.622 254,107.5C 254.667,106.833 255.333,106.167 256,105.5C 256.667,107.833 256.667,110.167 256,112.5C 254.345,119.453 252.845,126.453 251.5,133.5C 251.5,134.167 251.5,134.833 251.5,135.5C 250.883,135.611 250.383,135.944 250,136.5C 248.119,143.972 245.952,151.305 243.5,158.5C 241.5,158.5 239.5,158.5 237.5,158.5C 237.872,155.077 236.539,152.577 233.5,151C 229.311,150.188 225.311,150.355 221.5,151.5C 220.473,153.194 219.139,154.527 217.5,155.5C 216.25,155.577 215.417,156.244 215,157.5C 214.833,159.167 214.667,160.833 214.5,162.5C 215.038,166.217 215.872,169.884 217,173.5C 221.17,172.66 225.337,172.993 229.5,174.5C 231.709,171.434 234.543,170.768 238,172.5C 239.116,176.288 238.45,179.622 236,182.5C 235.71,184.952 235.044,187.285 234,189.5C 233.086,188.346 232.253,188.513 231.5,190C 232.616,195.68 232.616,201.514 231.5,207.5C 230.596,208.209 230.263,209.209 230.5,210.5C 223.393,209.755 216.393,208.755 209.5,207.5C 209.167,207.5 208.833,207.5 208.5,207.5C 207.653,206.034 206.32,205.2 204.5,205C 199.914,204.803 195.414,204.303 191,203.5C 190.333,207.167 190.333,210.833 191,214.5C 191.671,215.252 192.504,215.586 193.5,215.5C 194.041,218.652 193.041,221.152 190.5,223C 190.833,223.333 191.167,223.667 191.5,224C 188.654,225.19 185.821,226.357 183,227.5C 181.122,227.304 179.288,226.971 177.5,226.5C 176.705,222.215 176.372,217.881 176.5,213.5C 179.73,212.482 182.563,210.815 185,208.5C 185.667,206.5 185.667,204.5 185,202.5C 182.957,200.792 181.29,198.792 180,196.5C 172.623,195.969 165.123,194.969 157.5,193.5C 156.833,193.5 156.167,193.5 155.5,193.5C 152.933,191.964 150.433,190.298 148,188.5C 147.501,183.845 147.334,179.179 147.5,174.5C 147.5,173.833 147.5,173.167 147.5,172.5C 148.924,170.485 149.59,168.152 149.5,165.5C 149.5,165.167 149.5,164.833 149.5,164.5C 150.458,164.047 151.292,163.381 152,162.5C 153.094,156.311 155.761,150.978 160,146.5C 161.624,143.014 162.79,139.347 163.5,135.5C 165.505,133.666 167.672,131.999 170,130.5C 170.989,128.03 172.155,125.697 173.5,123.5C 179.887,118.762 186.22,114.095 192.5,109.5C 193.514,108.326 194.847,107.66 196.5,107.5C 200.533,106.975 204.2,105.642 207.5,103.5C 207.833,103.5 208.167,103.5 208.5,103.5C 213.47,102.647 218.47,101.98 223.5,101.5 Z"/></g>
<g><path style="opacity:1" fill="#4946ca" d="M 207.5,103.5 C 204.2,105.642 200.533,106.975 196.5,107.5C 199.8,105.358 203.467,104.025 207.5,103.5 Z"/></g>
<g><path style="opacity:1" fill="#312fcb" d="M 251.5,133.5 C 252.845,126.453 254.345,119.453 256,112.5C 256.667,110.167 256.667,107.833 256,105.5C 255.333,106.167 254.667,106.833 254,107.5C 252.457,105.622 250.624,104.122 248.5,103C 240.203,101.877 231.87,101.377 223.5,101.5C 223.5,101.167 223.5,100.833 223.5,100.5C 228.65,99.3493 233.984,99.1826 239.5,100C 246.217,101.005 252.884,102.172 259.5,103.5C 257.68,112.122 255.846,120.789 254,129.5C 253.392,131.066 252.558,132.4 251.5,133.5 Z"/></g>
<g><path style="opacity:1" fill="#3736b9" d="M 192.5,109.5 C 186.22,114.095 179.887,118.762 173.5,123.5C 178.703,117.297 185.036,112.63 192.5,109.5 Z"/></g>
<g><path style="opacity:1" fill="#bcc8f7" d="M 285.5,123.5 C 282.833,123.5 280.167,123.5 277.5,123.5C 277.5,141.5 277.5,159.5 277.5,177.5C 277.5,177.833 277.5,178.167 277.5,178.5C 277.167,178.5 276.833,178.5 276.5,178.5C 276.5,159.833 276.5,141.167 276.5,122.5C 279.713,122.19 282.713,122.523 285.5,123.5 Z"/></g>
<g><path style="opacity:1" fill="#222bba" d="M 285.5,123.5 C 289.687,124.213 293.687,125.213 297.5,126.5C 291.226,125.35 284.893,124.683 278.5,124.5C 278.83,142.341 278.497,160.008 277.5,177.5C 277.5,159.5 277.5,141.5 277.5,123.5C 280.167,123.5 282.833,123.5 285.5,123.5 Z"/></g>
<g><path style="opacity:1" fill="#3131c1" d="M 173.5,123.5 C 172.155,125.697 170.989,128.03 170,130.5C 167.672,131.999 165.505,133.666 163.5,135.5C 165.882,130.752 169.216,126.752 173.5,123.5 Z"/></g>
<g><path style="opacity:1" fill="#1d20d4" d="M 297.5,126.5 C 310.132,129.647 321.132,135.647 330.5,144.5C 328.5,144.5 326.5,144.5 324.5,144.5C 324.714,142.856 324.38,141.356 323.5,140C 320.548,138.311 317.548,137.645 314.5,138C 312.875,137.147 312.542,136.147 313.5,135C 311.603,133.89 309.77,133.724 308,134.5C 304.793,131.388 301.293,128.721 297.5,126.5 Z"/></g>
<g><path style="opacity:1" fill="#2b2ac8" d="M 251.5,135.5 C 249.717,143.713 247.384,151.713 244.5,159.5C 242.232,160.544 239.899,160.711 237.5,160C 235.539,157.037 233.206,154.371 230.5,152C 227.518,151.502 224.518,151.335 221.5,151.5C 225.311,150.355 229.311,150.188 233.5,151C 236.539,152.577 237.872,155.077 237.5,158.5C 239.5,158.5 241.5,158.5 243.5,158.5C 245.952,151.305 248.119,143.972 250,136.5C 250.383,135.944 250.883,135.611 251.5,135.5 Z"/></g>
<g><path style="opacity:1" fill="#3432ca" d="M 163.5,135.5 C 162.79,139.347 161.624,143.014 160,146.5C 155.761,150.978 153.094,156.311 152,162.5C 151.292,163.381 150.458,164.047 149.5,164.5C 152.344,153.816 157.011,144.149 163.5,135.5 Z"/></g>
<g><path style="opacity:1" fill="#2526d7" d="M 330.5,144.5 C 340.822,152.787 348.488,163.12 353.5,175.5C 352.5,175.5 351.5,175.5 350.5,175.5C 349.21,171.588 347.377,167.921 345,164.5C 344.333,165.833 343.333,166.833 342,167.5C 341.374,165.287 341.541,163.12 342.5,161C 340.139,155.469 336.473,150.969 331.5,147.5C 330.873,146.583 330.539,145.583 330.5,144.5 Z"/></g>
<g><path style="opacity:1" fill="#595bc0" d="M 238.5,169.5 C 236.097,169.448 233.764,169.781 231.5,170.5C 232.312,169.007 233.645,168.34 235.5,168.5C 236.726,168.52 237.726,168.853 238.5,169.5 Z"/></g>
<g><path style="opacity:1" fill="#6e72d6" d="M 149.5,165.5 C 149.59,168.152 148.924,170.485 147.5,172.5C 147.41,169.848 148.076,167.515 149.5,165.5 Z"/></g>
<g><path style="opacity:1" fill="#2123d3" d="M 217.5,155.5 C 214.471,160.66 215.137,165.327 219.5,169.5C 223.278,171.803 227.278,172.137 231.5,170.5C 233.764,169.781 236.097,169.448 238.5,169.5C 240.246,170.249 241.246,171.583 241.5,173.5C 240.29,177.128 239.29,180.794 238.5,184.5C 237.076,186.515 236.41,188.848 236.5,191.5C 235.211,197.03 233.544,202.364 231.5,207.5C 232.616,201.514 232.616,195.68 231.5,190C 232.253,188.513 233.086,188.346 234,189.5C 235.044,187.285 235.71,184.952 236,182.5C 238.45,179.622 239.116,176.288 238,172.5C 234.543,170.768 231.709,171.434 229.5,174.5C 225.337,172.993 221.17,172.66 217,173.5C 215.872,169.884 215.038,166.217 214.5,162.5C 214.667,160.833 214.833,159.167 215,157.5C 215.417,156.244 216.25,155.577 217.5,155.5 Z"/></g>
<g><path style="opacity:1" fill="#3834c0" d="M 147.5,174.5 C 147.334,179.179 147.501,183.845 148,188.5C 150.433,190.298 152.933,191.964 155.5,193.5C 152.673,193.416 150.006,192.75 147.5,191.5C 146.577,187.936 146.244,184.269 146.5,180.5C 146.205,178.265 146.539,176.265 147.5,174.5 Z"/></g>
<g><path style="opacity:1" fill="#2727c4" d="M 276.5,178.5 C 276.833,178.5 277.167,178.5 277.5,178.5C 277.739,180.467 277.406,182.301 276.5,184C 273.518,184.498 270.518,184.665 267.5,184.5C 265.577,178.454 261.91,177.121 256.5,180.5C 255.914,180.291 255.414,179.957 255,179.5C 254.228,180.849 253.061,181.682 251.5,182C 250.424,183.726 250.257,185.559 251,187.5C 252.626,189.917 254.126,192.417 255.5,195C 257.833,195.667 260.167,195.667 262.5,195C 264.761,193.187 267.095,191.687 269.5,190.5C 263.354,198.017 256.854,198.35 250,191.5C 248.318,179.183 253.485,174.683 265.5,178C 267.52,181.715 270.52,183.048 274.5,182C 275.823,181.184 276.489,180.017 276.5,178.5 Z"/></g>
<g><path style="opacity:1" fill="#403dc8" d="M 353.5,176.5 C 355.806,180.085 357.139,184.085 357.5,188.5C 354.958,185.039 353.625,181.039 353.5,176.5 Z"/></g>
<g><path style="opacity:1" fill="#8b8ce8" d="M 146.5,180.5 C 146.244,184.269 146.577,187.936 147.5,191.5C 146.213,190.129 145.547,188.295 145.5,186C 145.506,183.967 145.839,182.134 146.5,180.5 Z"/></g>
<g><path style="opacity:1" fill="#908fea" d="M 238.5,184.5 C 238.59,187.152 237.924,189.485 236.5,191.5C 236.41,188.848 237.076,186.515 238.5,184.5 Z"/></g>
<g><path style="opacity:1" fill="#302dd1" d="M 157.5,193.5 C 165.123,194.969 172.623,195.969 180,196.5C 181.29,198.792 182.957,200.792 185,202.5C 185.667,204.5 185.667,206.5 185,208.5C 182.563,210.815 179.73,212.482 176.5,213.5C 178.146,211.249 180.313,209.582 183,208.5C 183.667,206.5 183.667,204.5 183,202.5C 174.466,199.379 165.966,196.379 157.5,193.5 Z"/></g>
<g><path style="opacity:1" fill="#2c2dc2" d="M 209.5,207.5 C 216.393,208.755 223.393,209.755 230.5,210.5C 230.263,209.209 230.596,208.209 231.5,207.5C 231.753,209.827 231.086,211.827 229.5,213.5C 222.56,212.008 215.894,210.008 209.5,207.5 Z"/></g>
<g><path style="opacity:1" fill="#3633ca" d="M 208.5,207.5 C 203.568,206.181 198.568,205.681 193.5,206C 192.196,206.804 191.529,207.971 191.5,209.5C 192.178,211.516 192.844,213.516 193.5,215.5C 192.504,215.586 191.671,215.252 191,214.5C 190.333,210.833 190.333,207.167 191,203.5C 195.414,204.303 199.914,204.803 204.5,205C 206.32,205.2 207.653,206.034 208.5,207.5 Z"/></g>
<g><path style="opacity:1" fill="#3634c6" d="M 357.5,188.5 C 360.193,197.192 361.026,206.192 360,215.5C 358.392,218.772 356.392,221.772 354,224.5C 353.506,226.134 353.34,227.801 353.5,229.5C 351.875,224.212 353.375,219.878 358,216.5C 358.517,207.155 358.35,197.822 357.5,188.5 Z"/></g>
<g><path style="opacity:1" fill="#2727bf" d="M 176.5,213.5 C 176.372,217.881 176.705,222.215 177.5,226.5C 175.106,224.668 174.106,222.168 174.5,219C 174.667,217.5 174.833,216 175,214.5C 175.383,213.944 175.883,213.611 176.5,213.5 Z"/></g>
<g><path style="opacity:1" fill="#2223cd" d="M 193.5,215.5 C 195.487,226.344 190.82,230.844 179.5,229C 178.619,228.292 177.953,227.458 177.5,226.5C 179.288,226.971 181.122,227.304 183,227.5C 185.821,226.357 188.654,225.19 191.5,224C 191.167,223.667 190.833,223.333 190.5,223C 193.041,221.152 194.041,218.652 193.5,215.5 Z"/></g>
<g><path style="opacity:1" fill="#5458d3" d="M 228.5,244.5 C 228.662,242.473 228.495,240.473 228,238.5C 227.25,237.874 226.416,237.374 225.5,237C 214.172,236.5 202.838,236.333 191.5,236.5C 191.5,237.833 191.5,239.167 191.5,240.5C 189.787,239.365 189.12,237.698 189.5,235.5C 201.838,235.333 214.171,235.5 226.5,236C 230.827,238.146 231.494,240.979 228.5,244.5 Z"/></g>
<g><path style="opacity:1" fill="#585edd" d="M 277.5,235.5 C 265.295,236.204 252.962,236.871 240.5,237.5C 240.611,236.883 240.944,236.383 241.5,236C 253.495,235.5 265.495,235.333 277.5,235.5 Z"/></g>
<g><path style="opacity:1" fill="#0719f2" d="M 297.5,126.5 C 301.293,128.721 304.793,131.388 308,134.5C 309.77,133.724 311.603,133.89 313.5,135C 312.542,136.147 312.875,137.147 314.5,138C 317.548,137.645 320.548,138.311 323.5,140C 324.38,141.356 324.714,142.856 324.5,144.5C 326.5,144.5 328.5,144.5 330.5,144.5C 330.539,145.583 330.873,146.583 331.5,147.5C 336.473,150.969 340.139,155.469 342.5,161C 341.541,163.12 341.374,165.287 342,167.5C 343.333,166.833 344.333,165.833 345,164.5C 347.377,167.921 349.21,171.588 350.5,175.5C 351.5,175.5 352.5,175.5 353.5,175.5C 353.5,175.833 353.5,176.167 353.5,176.5C 353.625,181.039 354.958,185.039 357.5,188.5C 358.35,197.822 358.517,207.155 358,216.5C 353.375,219.878 351.875,224.212 353.5,229.5C 353.687,235.865 356.02,241.199 360.5,245.5C 362.242,252.684 362.909,260.017 362.5,267.5C 359.246,267.794 356.579,269.127 354.5,271.5C 352.031,272.569 349.698,273.902 347.5,275.5C 346.518,278.962 346.185,282.629 346.5,286.5C 344.821,286.285 343.821,286.952 343.5,288.5C 343.664,291.187 343.497,293.854 343,296.5C 340.002,298.333 337.502,300.666 335.5,303.5C 333.268,308.391 331.768,313.725 331,319.5C 329.69,321.739 327.857,323.406 325.5,324.5C 324.417,324.539 323.417,324.873 322.5,325.5C 321.833,324.833 321.167,324.167 320.5,323.5C 317.227,324.585 313.894,324.752 310.5,324C 311.167,323.333 311.833,322.667 312.5,322C 305.811,320.95 299.144,320.783 292.5,321.5C 288.046,323.38 285.213,326.714 284,331.5C 280.956,332.803 279.789,335.136 280.5,338.5C 278.952,338.821 278.285,339.821 278.5,341.5C 273.202,341.849 268.869,340.015 265.5,336C 262.173,335.39 258.839,334.89 255.5,334.5C 253.216,334.025 251.216,333.025 249.5,331.5C 247.626,329.885 246.292,327.885 245.5,325.5C 241.374,325.428 237.374,324.761 233.5,323.5C 231.847,323.34 230.514,322.674 229.5,321.5C 229.5,320.5 229.5,319.5 229.5,318.5C 224.132,316.025 218.465,314.359 212.5,313.5C 210.847,313.34 209.514,312.674 208.5,311.5C 206.082,308.29 202.748,306.624 198.5,306.5C 195.123,304.825 191.789,303.158 188.5,301.5C 186.672,299.839 184.672,298.172 182.5,296.5C 183.246,295.264 183.579,293.93 183.5,292.5C 185.587,291.415 186.92,289.749 187.5,287.5C 189.074,287.063 190.241,286.063 191,284.5C 195.604,275.003 197.271,265.003 196,254.5C 195.495,251.135 194.328,248.135 192.5,245.5C 191.962,243.883 191.629,242.216 191.5,240.5C 191.5,239.167 191.5,237.833 191.5,236.5C 202.838,236.333 214.172,236.5 225.5,237C 226.416,237.374 227.25,237.874 228,238.5C 228.495,240.473 228.662,242.473 228.5,244.5C 228.5,245.167 228.167,245.5 227.5,245.5C 225.659,246.673 223.826,246.673 222,245.5C 220.377,246.811 218.877,247.477 217.5,247.5C 218,248.5 218.5,249.5 219,250.5C 220,249.167 221,249.167 222,250.5C 222.333,253.5 222.667,256.5 223,259.5C 225.445,260.977 227.612,262.81 229.5,265C 232.167,265.667 234.833,265.667 237.5,265C 238.416,264.722 239.082,264.222 239.5,263.5C 242.753,262.749 244.92,260.749 246,257.5C 246.498,254.518 246.665,251.518 246.5,248.5C 245.5,248.5 244.5,248.5 243.5,248.5C 243.5,248.167 243.5,247.833 243.5,247.5C 243.315,245.804 242.481,244.471 241,243.5C 240.505,241.527 240.338,239.527 240.5,237.5C 252.962,236.871 265.295,236.204 277.5,235.5C 277.667,221.496 277.5,207.496 277,193.5C 275.152,190.959 272.652,189.959 269.5,190.5C 267.095,191.687 264.761,193.187 262.5,195C 260.167,195.667 257.833,195.667 255.5,195C 254.126,192.417 252.626,189.917 251,187.5C 250.257,185.559 250.424,183.726 251.5,182C 253.061,181.682 254.228,180.849 255,179.5C 255.414,179.957 255.914,180.291 256.5,180.5C 261.91,177.121 265.577,178.454 267.5,184.5C 270.518,184.665 273.518,184.498 276.5,184C 277.406,182.301 277.739,180.467 277.5,178.5C 277.5,178.167 277.5,177.833 277.5,177.5C 278.497,160.008 278.83,142.341 278.5,124.5C 284.893,124.683 291.226,125.35 297.5,126.5 Z"/></g>
<g><path style="opacity:1" fill="#3433ba" d="M 240.5,237.5 C 240.338,239.527 240.505,241.527 241,243.5C 242.481,244.471 243.315,245.804 243.5,247.5C 238.442,245.012 237.442,241.679 240.5,237.5 Z"/></g>
<g><path style="opacity:1" fill="#3a38ca" d="M 353.5,229.5 C 356.345,234.531 358.678,239.864 360.5,245.5C 356.02,241.199 353.687,235.865 353.5,229.5 Z"/></g>
<g><path style="opacity:1" fill="#2022d7" d="M 227.5,245.5 C 226.833,246.5 226.167,247.5 225.5,248.5C 224.883,248.611 224.383,248.944 224,249.5C 223.333,252.5 223.333,255.5 224,258.5C 224.383,259.056 224.883,259.389 225.5,259.5C 229.335,263.175 234.001,264.509 239.5,263.5C 239.082,264.222 238.416,264.722 237.5,265C 234.833,265.667 232.167,265.667 229.5,265C 227.612,262.81 225.445,260.977 223,259.5C 222.667,256.5 222.333,253.5 222,250.5C 221,249.167 220,249.167 219,250.5C 218.5,249.5 218,248.5 217.5,247.5C 218.877,247.477 220.377,246.811 222,245.5C 223.826,246.673 225.659,246.673 227.5,245.5 Z"/></g>
<g><path style="opacity:1" fill="#4b4cc4" d="M 225.5,248.5 C 224.167,252.167 224.167,255.833 225.5,259.5C 224.883,259.389 224.383,259.056 224,258.5C 223.333,255.5 223.333,252.5 224,249.5C 224.383,248.944 224.883,248.611 225.5,248.5 Z"/></g>
<g><path style="opacity:1" fill="#2d2ec9" d="M 243.5,248.5 C 244.5,248.5 245.5,248.5 246.5,248.5C 246.665,251.518 246.498,254.518 246,257.5C 244.92,260.749 242.753,262.749 239.5,263.5C 244.301,259.441 245.634,254.441 243.5,248.5 Z"/></g>
<g><path style="opacity:1" fill="#3e3ac8" d="M 360.5,245.5 C 364.188,251.594 365.688,258.26 365,265.5C 362.666,269.42 359.166,271.42 354.5,271.5C 356.579,269.127 359.246,267.794 362.5,267.5C 362.909,260.017 362.242,252.684 360.5,245.5 Z"/></g>
<g><path style="opacity:1" fill="#3d39c2" d="M 192.5,245.5 C 194.328,248.135 195.495,251.135 196,254.5C 197.271,265.003 195.604,275.003 191,284.5C 190.241,286.063 189.074,287.063 187.5,287.5C 194.746,274.184 196.413,260.184 192.5,245.5 Z"/></g>
<g><path style="opacity:1" fill="#3839bd" d="M 347.5,275.5 C 347.824,279.555 347.491,283.555 346.5,287.5C 345.583,288.127 344.583,288.461 343.5,288.5C 343.821,286.952 344.821,286.285 346.5,286.5C 346.185,282.629 346.518,278.962 347.5,275.5 Z"/></g>
<g><path style="opacity:1" fill="#4643c1" d="M 187.5,287.5 C 186.92,289.749 185.587,291.415 183.5,292.5C 184.08,290.251 185.413,288.585 187.5,287.5 Z"/></g>
<g><path style="opacity:1" fill="#3230bc" d="M 183.5,292.5 C 183.579,293.93 183.246,295.264 182.5,296.5C 184.672,298.172 186.672,299.839 188.5,301.5C 185.426,300.644 182.592,299.31 180,297.5C 179.333,296.833 179.333,296.167 180,295.5C 180.759,293.937 181.926,292.937 183.5,292.5 Z"/></g>
<g><path style="opacity:1" fill="#3f3ec5" d="M 198.5,306.5 C 202.748,306.624 206.082,308.29 208.5,311.5C 204.849,310.341 201.515,308.674 198.5,306.5 Z"/></g>
<g><path style="opacity:1" fill="#2d2dc0" d="M 335.5,303.5 C 335.079,310.106 333.579,316.44 331,322.5C 329.568,324.439 327.735,325.772 325.5,326.5C 325.5,325.833 325.5,325.167 325.5,324.5C 327.857,323.406 329.69,321.739 331,319.5C 331.768,313.725 333.268,308.391 335.5,303.5 Z"/></g>
<g><path style="opacity:1" fill="#332fc9" d="M 212.5,313.5 C 218.465,314.359 224.132,316.025 229.5,318.5C 229.5,319.5 229.5,320.5 229.5,321.5C 223.379,319.582 217.712,316.915 212.5,313.5 Z"/></g>
<g><path style="opacity:1" fill="#1b20d6" d="M 325.5,324.5 C 325.5,325.167 325.5,325.833 325.5,326.5C 321.587,327.596 317.587,327.762 313.5,327C 307.041,324.383 300.374,323.05 293.5,323C 291.714,323.785 290.214,324.951 289,326.5C 286.304,330.68 283.47,334.68 280.5,338.5C 279.789,335.136 280.956,332.803 284,331.5C 285.213,326.714 288.046,323.38 292.5,321.5C 299.144,320.783 305.811,320.95 312.5,322C 311.833,322.667 311.167,323.333 310.5,324C 313.894,324.752 317.227,324.585 320.5,323.5C 321.167,324.167 321.833,324.833 322.5,325.5C 323.417,324.873 324.417,324.539 325.5,324.5 Z"/></g>
<g><path style="opacity:1" fill="#3331cc" d="M 233.5,323.5 C 237.374,324.761 241.374,325.428 245.5,325.5C 246.292,327.885 247.626,329.885 249.5,331.5C 243.849,329.341 238.516,326.674 233.5,323.5 Z"/></g>
<g><path style="opacity:1" fill="#342fc8" d="M 255.5,334.5 C 258.839,334.89 262.173,335.39 265.5,336C 268.869,340.015 273.202,341.849 278.5,341.5C 278.285,339.821 278.952,338.821 280.5,338.5C 280.152,341.207 278.819,343.207 276.5,344.5C 269.293,341.394 262.293,338.061 255.5,334.5 Z"/></g>
<g><path style="opacity:1" fill="#453eba" d="M 298.5,368.5 C 298.562,363.016 295.895,361.183 290.5,363C 289.956,363.717 289.289,364.217 288.5,364.5C 288.574,362.589 289.574,361.422 291.5,361C 296.132,359.422 299.132,360.922 300.5,365.5C 300.547,367.038 299.88,368.038 298.5,368.5 Z"/></g>
<g><path style="opacity:1" fill="#151cd5" d="M 298.5,368.5 C 293.069,372.16 289.736,370.827 288.5,364.5C 289.289,364.217 289.956,363.717 290.5,363C 295.895,361.183 298.562,363.016 298.5,368.5 Z"/></g>
<g><path style="opacity:1" fill="#232222" d="M 156.5,366.5 C 164.507,366.334 172.507,366.5 180.5,367C 192.053,369.936 195.887,377.103 192,388.5C 190.356,391.311 188.19,393.644 185.5,395.5C 188.304,400.136 191.304,404.636 194.5,409C 190.833,409.667 187.167,409.667 183.5,409C 181.028,405.029 178.362,401.195 175.5,397.5C 172.572,396.516 169.572,396.183 166.5,396.5C 166.5,400.833 166.5,405.167 166.5,409.5C 163.167,409.5 159.833,409.5 156.5,409.5C 156.5,395.167 156.5,380.833 156.5,366.5 Z"/></g>
<g><path style="opacity:1" fill="#eeeeee" d="M 166.5,374.5 C 170.846,374.334 175.179,374.501 179.5,375C 184.808,379.429 184.808,383.763 179.5,388C 175.27,389.29 170.936,389.79 166.5,389.5C 166.5,384.5 166.5,379.5 166.5,374.5 Z"/></g>
<g><path style="opacity:1" fill="#5f60c9" d="M 323.5,375.5 C 319.821,375.724 316.154,376.058 312.5,376.5C 316.069,374.559 319.735,374.226 323.5,375.5 Z"/></g>
<g><path style="opacity:1" fill="#3735b3" d="M 260.5,373.5 C 266.979,372.509 273.646,372.176 280.5,372.5C 280.5,370.833 280.5,369.167 280.5,367.5C 270.833,367.5 261.167,367.5 251.5,367.5C 251.5,380.167 251.5,392.833 251.5,405.5C 261.5,405.5 271.5,405.5 281.5,405.5C 281.5,403.5 281.5,401.5 281.5,399.5C 282.473,401.948 282.806,404.615 282.5,407.5C 271.833,407.5 261.167,407.5 250.5,407.5C 250.5,393.5 250.5,379.5 250.5,365.5C 260.833,365.5 271.167,365.5 281.5,365.5C 281.5,368.167 281.5,370.833 281.5,373.5C 274.5,373.5 267.5,373.5 260.5,373.5 Z"/></g>
<g><path style="opacity:1" fill="#4a42cb" d="M 260.5,373.5 C 260.5,376.167 260.5,378.833 260.5,381.5C 266.69,381.177 272.69,381.51 278.5,382.5C 278.795,384.735 278.461,386.735 277.5,388.5C 277.5,386.833 277.5,385.167 277.5,383.5C 271.491,383.666 265.491,383.499 259.5,383C 258.878,381.431 258.544,379.764 258.5,378C 258.569,376.014 259.235,374.514 260.5,373.5 Z"/></g>
<g><path style="opacity:1" fill="#0f1ae5" d="M 329.5,378.5 C 329.5,379.833 329.5,381.167 329.5,382.5C 327.5,382.5 325.5,382.5 323.5,382.5C 320.751,382.274 318.084,382.607 315.5,383.5C 314.571,384.689 314.238,386.022 314.5,387.5C 317.781,387.42 320.781,388.087 323.5,389.5C 325.22,390.864 327.22,391.864 329.5,392.5C 330.833,394.167 330.833,395.833 329.5,397.5C 323.958,393.385 317.625,391.719 310.5,392.5C 309.219,390.331 308.219,387.997 307.5,385.5C 308.182,383.159 308.849,380.826 309.5,378.5C 316.102,378.758 322.769,378.758 329.5,378.5 Z"/></g>
<g><path style="opacity:1" fill="#2d2eb0" d="M 329.5,377.5 C 330.497,377.47 331.164,377.97 331.5,379C 330.686,384.766 328.019,385.933 323.5,382.5C 325.5,382.5 327.5,382.5 329.5,382.5C 329.5,381.167 329.5,379.833 329.5,378.5C 329.5,378.167 329.5,377.833 329.5,377.5 Z"/></g>
<g><path style="opacity:1" fill="#312fb4" d="M 289.5,375.5 C 292.5,375.5 295.5,375.5 298.5,375.5C 298.5,386.167 298.5,396.833 298.5,407.5C 295.5,407.5 292.5,407.5 289.5,407.5C 289.5,396.833 289.5,386.167 289.5,375.5 Z"/></g>
<g><path style="opacity:1" fill="#232222" d="M 211.5,375.5 C 225.286,375.286 231.953,381.952 231.5,395.5C 223.472,395.169 215.472,395.502 207.5,396.5C 210.669,401.118 215.002,402.618 220.5,401C 222.055,399.711 223.721,399.044 225.5,399C 226.453,400.955 227.787,402.622 229.5,404C 223.815,409.156 217.148,410.822 209.5,409C 200.037,404.91 196.204,397.743 198,387.5C 200.833,381.493 205.333,377.493 211.5,375.5 Z"/></g>
<g><path style="opacity:1" fill="#f0efef" d="M 222.5,389.5 C 217.305,389.821 212.305,389.487 207.5,388.5C 208.444,384.889 210.777,383.223 214.5,383.5C 219.067,383.105 221.734,385.105 222.5,389.5 Z"/></g>
<g><path style="opacity:1" fill="#3636b5" d="M 278.5,382.5 C 279.468,384.607 279.802,386.941 279.5,389.5C 273.167,389.5 266.833,389.5 260.5,389.5C 260.5,392.833 260.5,396.167 260.5,399.5C 259.518,396.038 259.185,392.371 259.5,388.5C 265.5,388.5 271.5,388.5 277.5,388.5C 278.461,386.735 278.795,384.735 278.5,382.5 Z"/></g>
<g><path style="opacity:1" fill="#6e6b6c" d="M 207.5,388.5 C 212.305,389.487 217.305,389.821 222.5,389.5C 217.32,390.815 211.986,390.815 206.5,389.5C 206.624,388.893 206.957,388.56 207.5,388.5 Z"/></g>
<g><path style="opacity:1" fill="#0718e9" d="M 290.5,377.5 C 292.792,377.244 294.959,377.577 297,378.5C 297.5,387.494 297.666,396.494 297.5,405.5C 295.167,405.5 292.833,405.5 290.5,405.5C 290.5,396.167 290.5,386.833 290.5,377.5 Z"/></g>
<g><path style="opacity:1" fill="#898ee7" d="M 312.5,393.5 C 315.428,393.565 318.095,394.232 320.5,395.5C 317.505,395.706 314.838,395.04 312.5,393.5 Z"/></g>
<g><path style="opacity:1" fill="#1e21d6" d="M 323.5,375.5 C 325.786,375.595 327.786,376.262 329.5,377.5C 329.5,377.833 329.5,378.167 329.5,378.5C 322.769,378.758 316.102,378.758 309.5,378.5C 308.849,380.826 308.182,383.159 307.5,385.5C 308.219,387.997 309.219,390.331 310.5,392.5C 317.625,391.719 323.958,393.385 329.5,397.5C 330.833,395.833 330.833,394.167 329.5,392.5C 327.22,391.864 325.22,390.864 323.5,389.5C 325.927,389.523 328.26,390.023 330.5,391C 331.823,391.816 332.489,392.983 332.5,394.5C 332.425,397.206 332.092,399.873 331.5,402.5C 326.905,406.141 321.572,407.807 315.5,407.5C 313.095,406.232 310.428,405.565 307.5,405.5C 305.748,405.582 304.748,404.749 304.5,403C 305.856,401.433 306.523,399.6 306.5,397.5C 311.932,399.281 317.599,399.948 323.5,399.5C 323.912,397.027 322.912,395.694 320.5,395.5C 318.095,394.232 315.428,393.565 312.5,393.5C 307.463,392.958 305.13,390.125 305.5,385C 305.474,380.195 307.808,377.361 312.5,376.5C 316.154,376.058 319.821,375.724 323.5,375.5 Z"/></g>
<g><path style="opacity:1" fill="#7275d2" d="M 332.5,394.5 C 333.917,397.34 333.584,400.007 331.5,402.5C 332.092,399.873 332.425,397.206 332.5,394.5 Z"/></g>
<g><path style="opacity:1" fill="#0a18e8" d="M 260.5,373.5 C 259.235,374.514 258.569,376.014 258.5,378C 258.544,379.764 258.878,381.431 259.5,383C 265.491,383.499 271.491,383.666 277.5,383.5C 277.5,385.167 277.5,386.833 277.5,388.5C 271.5,388.5 265.5,388.5 259.5,388.5C 259.185,392.371 259.518,396.038 260.5,399.5C 267.5,399.5 274.5,399.5 281.5,399.5C 281.5,401.5 281.5,403.5 281.5,405.5C 271.5,405.5 261.5,405.5 251.5,405.5C 251.5,392.833 251.5,380.167 251.5,367.5C 261.167,367.5 270.833,367.5 280.5,367.5C 280.5,369.167 280.5,370.833 280.5,372.5C 273.646,372.176 266.979,372.509 260.5,373.5 Z"/></g>
<g><path style="opacity:1" fill="#5d5fc8" d="M 307.5,405.5 C 310.428,405.565 313.095,406.232 315.5,407.5C 312.505,407.706 309.838,407.04 307.5,405.5 Z"/></g>
</svg>
